# xmcd
#
# Track frame offsets:
#	150
#	23023
#	47682
#	73932
#	116667
#	144564
#	175628
#	193715
#	217715
#	239650
#	263340
#	279145
#
# Disc length: 4123 seconds
#
# Revision: 0
# Processed by: cddbd v1.5.2PL0 Copyright (c) Steve Scherf et al.
# Submitted via: dBpowerAMP V4.0
#
DISCID=a310190c
DTITLE=R' Hille Palay - Hashiro Hazos
DYEAR=2005
DGENRE=Hassidi
TTITLE0=Tora Hakedosha
TTITLE1=Hupaniso
TTITLE2=Venaharo
TTITLE3=Shiru Lamelech
TTITLE4=Choneini Hashem
TTITLE5=Ad Heno
TTITLE6=Lichvod Chosson
TTITLE7=Dirshu Hashem
TTITLE8=Adon Hashalom
TTITLE9=Vehisaneg
TTITLE10=Habeit
TTITLE11=Choneini Hashem
EXTD=Hashira hazos - R' Hillel Pelay
EXTT0=
EXTT1=
EXTT2=
EXTT3=
EXTT4=
EXTT5=
EXTT6=
EXTT7=
EXTT8=
EXTT9=
EXTT10=
EXTT11=
PLAYORDER=
